<svg width="128" height="128" viewBox="0 0 128 128" fill="none" xmlns="http://www.w3.org/2000/svg">
<path d="M64 117.333C93.4551 117.333 117.333 93.4552 117.333 64C117.333 34.5448 93.4551 10.6667 64 10.6667C34.5448 10.6667 10.6666 34.5448 10.6666 64C10.6666 93.4552 34.5448 117.333 64 117.333Z" stroke="white" stroke-width="2" stroke-linecap="round" stroke-linejoin="round"/>
<path d="M64 117.333V96" stroke="white" stroke-width="2" stroke-linecap="round" stroke-linejoin="round"/>
<path d="M117.333 64H96" stroke="white" stroke-width="2" stroke-linecap="round" stroke-linejoin="round"/>
<path d="M32 64H10.6666" stroke="white" stroke-width="2" stroke-linecap="round" stroke-linejoin="round"/>
<path d="M64 32V10.6667" stroke="white" stroke-width="2" stroke-linecap="round" stroke-linejoin="round"/>
<path d="M80.9999 64.519C80.987 61.8189 79.8938 59.2332 77.9586 57.3256L68.1426 47.4886C67.1763 46.5354 65.8663 46 64.5004 46C63.1345 46 61.8244 46.5354 60.8581 47.4886L51.0421 57.2357C49.1069 59.1433 48.0137 61.729 48.0008 64.4291C47.9839 65.7888 48.2411 67.1383 48.7575 68.3988C49.2738 69.6594 50.039 70.806 51.0085 71.7717C51.978 72.7374 53.1324 73.503 54.4044 74.0238C55.6764 74.5447 57.0407 74.8104 58.4177 74.8056V74.8056C57.9601 76.3571 57.1991 77.805 56.1777 79.0677C55.9574 79.3355 55.8197 79.6603 55.7811 80.0032C55.7426 80.3462 55.8048 80.6929 55.9603 81.0019C56.1158 81.311 56.3581 81.5693 56.6582 81.7461C56.9583 81.9229 57.3036 82.0107 57.6529 81.999H71.3479C71.6925 82.0001 72.0304 81.9047 72.3223 81.7238C72.6142 81.5429 72.8481 81.2839 72.9968 80.9769C73.1456 80.6699 73.2031 80.3276 73.1626 79.9896C73.1222 79.6516 72.9855 79.3319 72.7684 79.0677C71.7454 77.8061 70.9842 76.3578 70.5284 74.8056C71.9014 74.8199 73.2636 74.5646 74.5359 74.0545C75.8081 73.5444 76.965 72.7897 77.9393 71.8343C78.9136 70.8789 79.686 69.7417 80.2114 68.489C80.7368 67.2363 81.0048 65.8929 80.9999 64.537V64.519ZM75.4272 69.2487C74.5659 70.0863 73.4965 70.6851 72.3264 70.985C71.1563 71.2849 69.9269 71.2753 68.7618 70.9571C68.6588 70.9484 68.5553 70.9484 68.4522 70.9571H68.088C67.9517 70.9823 67.8177 71.0184 67.6874 71.065H67.4142C67.3273 71.121 67.2478 71.1875 67.1774 71.2628C67.0623 71.3312 66.9579 71.4161 66.8678 71.5146C66.8385 71.5841 66.8019 71.6504 66.7586 71.7124C66.6786 71.8465 66.6057 71.9846 66.54 72.126V72.126C66.5311 72.2337 66.5311 72.342 66.54 72.4497C66.54 72.5576 66.54 72.6655 66.54 72.7734C66.6829 74.7245 67.1891 76.6327 68.0334 78.4023H60.9673C61.8301 76.7154 62.3732 74.887 62.5699 73.0072V73.0072C62.5699 72.8993 62.5699 72.7914 62.5699 72.6655C62.5789 72.5578 62.5789 72.4495 62.5699 72.3418C62.5091 72.189 62.4296 72.044 62.3332 71.9102C62.3036 71.8465 62.2669 71.7862 62.2239 71.7304C62.1447 71.6282 62.0456 71.5426 61.9325 71.4786C61.8582 71.4075 61.7791 71.3414 61.6958 71.2808H61.4408C61.3077 71.2201 61.1668 71.1778 61.022 71.1549V71.1549H60.676C60.5669 71.1461 60.4572 71.1461 60.3481 71.1549C59.1494 71.4633 57.8889 71.4491 56.6976 71.1139C55.5063 70.7787 54.4276 70.1346 53.5735 69.2487C52.3079 67.9911 51.5948 66.2919 51.5884 64.519C51.5856 63.6401 51.7597 62.7694 52.1005 61.9575C52.4412 61.1456 52.9419 60.4086 53.5735 59.7893L63.4077 50.0423C63.6831 49.7775 64.0523 49.6294 64.4366 49.6294C64.821 49.6294 65.1902 49.7775 65.4656 50.0423L75.4272 59.7893C76.0588 60.4086 76.5595 61.1456 76.9003 61.9575C77.241 62.7694 77.4151 63.6401 77.4123 64.519C77.4001 66.2908 76.6878 67.9878 75.4272 69.2487V69.2487Z" fill="white"/>
</svg>
