<svg width="128" height="128" viewBox="0 0 128 128" fill="none" xmlns="http://www.w3.org/2000/svg">
<path d="M64 117.333C93.4552 117.333 117.333 93.4551 117.333 64C117.333 34.5448 93.4552 10.6666 64 10.6666C34.5448 10.6666 10.6667 34.5448 10.6667 64C10.6667 93.4551 34.5448 117.333 64 117.333Z" stroke="#212121" stroke-width="2" stroke-linecap="round" stroke-linejoin="round"/>
<path d="M64 117.333V96" stroke="#212121" stroke-width="2" stroke-linecap="round" stroke-linejoin="round"/>
<path d="M117.333 64H96" stroke="#212121" stroke-width="2" stroke-linecap="round" stroke-linejoin="round"/>
<path d="M32 64H10.6667" stroke="#212121" stroke-width="2" stroke-linecap="round" stroke-linejoin="round"/>
<path d="M64 32V10.6666" stroke="#212121" stroke-width="2" stroke-linecap="round" stroke-linejoin="round"/>
<path d="M76.4219 51.4733C76.2403 51.3323 76.0282 51.2321 75.8011 51.1802C75.574 51.1283 75.3376 51.1259 75.1094 51.1732C73.4397 51.5092 71.7162 51.5135 70.0447 51.1858C68.3733 50.8581 66.7894 50.2053 65.3906 49.2676C65.1291 49.0934 64.8183 49 64.5 49C64.1817 49 63.8709 49.0934 63.6094 49.2676C62.2106 50.2053 60.6267 50.8581 58.9553 51.1858C57.2838 51.5135 55.5603 51.5092 53.8906 51.1732C53.6624 51.1259 53.426 51.1283 53.1989 51.1802C52.9718 51.2321 52.7597 51.3323 52.5781 51.4733C52.3969 51.6145 52.2508 51.793 52.1508 51.9955C52.0507 52.198 51.9992 52.4195 52 52.6437V63.8222C51.9986 65.9735 52.5325 68.094 53.5571 70.007C54.5817 71.9201 56.0675 73.5705 57.8906 74.8206L63.5938 78.7218C63.8584 78.9028 64.1752 79 64.5 79C64.8249 79 65.1416 78.9028 65.4062 78.7218L71.1094 74.8206C72.9325 73.5705 74.4183 71.9201 75.4429 70.007C76.4675 68.094 77.0014 65.9735 77 63.8222V52.6437C77.0008 52.4195 76.9493 52.198 76.8492 51.9955C76.7492 51.793 76.6031 51.6145 76.4219 51.4733ZM73.875 63.8222C73.8762 65.4948 73.4614 67.1436 72.6651 68.6312C71.8688 70.1188 70.714 71.4023 69.2969 72.3749L64.5 75.6609L59.7031 72.3749C58.286 71.4023 57.1312 70.1188 56.3349 68.6312C55.5386 67.1436 55.1238 65.4948 55.125 63.8222V54.3692C58.4007 54.6384 61.6813 53.9086 64.5 52.2836C67.3187 53.9086 70.5993 54.6384 73.875 54.3692V63.8222ZM66.9062 60.3861L62.7031 64.4374L61.3125 63.0869C61.0183 62.8044 60.6192 62.6457 60.2031 62.6457C59.787 62.6457 59.388 62.8044 59.0938 63.0869C58.7995 63.3695 58.6342 63.7527 58.6342 64.1523C58.6342 64.5519 58.7995 64.9351 59.0938 65.2176L61.5938 67.6184C61.739 67.759 61.9118 67.8706 62.1022 67.9468C62.2926 68.023 62.4969 68.0622 62.7031 68.0622C62.9094 68.0622 63.1136 68.023 63.304 67.9468C63.4944 67.8706 63.6672 67.759 63.8125 67.6184L69.1875 62.5018C69.4817 62.2192 69.647 61.836 69.647 61.4364C69.647 61.0368 69.4817 60.6536 69.1875 60.3711C68.8933 60.0885 68.4942 59.9298 68.0781 59.9298C67.662 59.9298 67.263 60.0885 66.9687 60.3711L66.9062 60.3861Z" fill="black"/>
</svg>
