<svg width="25" height="25" viewBox="0 0 25 25" fill="none" xmlns="http://www.w3.org/2000/svg">
<path d="M18.966 10.9628C18.9658 10.6976 18.8603 10.4434 18.6726 10.256C18.4849 10.0686 18.2305 9.96343 17.9652 9.96364L6.37524 9.97287L8.67342 7.68104C8.86157 7.49259 8.96716 7.23711 8.96694 6.97081C8.96673 6.70451 8.86074 6.4492 8.67229 6.26104C8.48383 6.07289 8.22835 5.9673 7.96205 5.96752C7.69575 5.96773 7.44044 6.07372 7.25229 6.26217L3.25547 10.2654C3.11683 10.4061 3.02297 10.5847 2.98575 10.7788C2.94853 10.9728 2.96962 11.1735 3.04634 11.3555C3.12151 11.5381 3.24903 11.6943 3.41284 11.8045C3.57665 11.9147 3.76941 11.974 3.96684 11.9748L17.9668 11.9636C18.232 11.9634 18.4863 11.8579 18.6737 11.6702C18.8611 11.4825 18.9662 11.2281 18.966 10.9628ZM22.8889 14.5797C22.8138 14.3972 22.6862 14.2409 22.5224 14.1307C22.3586 14.0205 22.1658 13.9613 21.9684 13.9605L7.96843 13.9716C7.70321 13.9718 7.44894 14.0774 7.26155 14.2651C7.07417 14.4527 6.96901 14.7072 6.96922 14.9724C6.96943 15.2376 7.07499 15.4919 7.26268 15.6793C7.45037 15.8667 7.7048 15.9718 7.97002 15.9716L19.56 15.9624L17.2618 18.2542C17.1682 18.3472 17.0939 18.4579 17.0432 18.5798C16.9925 18.7017 16.9665 18.8324 16.9666 18.9644C16.9667 19.0965 16.993 19.2271 17.0438 19.349C17.0947 19.4708 17.1692 19.5813 17.263 19.6742C17.356 19.7679 17.4667 19.8422 17.5886 19.8928C17.7105 19.9435 17.8412 19.9695 17.9732 19.9694C18.1052 19.9693 18.2359 19.9431 18.3577 19.8922C18.4795 19.8414 18.5901 19.7669 18.683 19.6731L22.6798 15.6699C22.8184 15.5292 22.9123 15.3505 22.9495 15.1565C22.9867 14.9625 22.9656 14.7618 22.8889 14.5797V14.5797Z" fill="#303030"/>
</svg>
