<svg width="16" height="16" viewBox="0 0 16 16" fill="none" xmlns="http://www.w3.org/2000/svg">
<path d="M13.2733 10.34H10.2533C10.0765 10.34 9.90696 10.4102 9.78194 10.5353C9.65692 10.6603 9.58668 10.8299 9.58668 11.0067C9.58668 11.1835 9.65692 11.353 9.78194 11.4781C9.90696 11.6031 10.0765 11.6733 10.2533 11.6733H11.8533C11.118 12.4418 10.1696 12.9729 9.13012 13.1983C8.09063 13.4237 7.00748 13.3331 6.01986 12.9382C5.03224 12.5433 4.18526 11.8621 3.58774 10.9821C2.99022 10.1022 2.66946 9.06365 2.66668 8C2.66668 7.82319 2.59644 7.65362 2.47141 7.5286C2.34639 7.40357 2.17682 7.33334 2.00001 7.33334C1.8232 7.33334 1.65363 7.40357 1.52861 7.5286C1.40358 7.65362 1.33334 7.82319 1.33334 8C1.33687 9.30187 1.72149 10.5742 2.43975 11.66C3.158 12.7458 4.17845 13.5976 5.37517 14.1102C6.57189 14.6227 7.8925 14.7737 9.17402 14.5444C10.4555 14.3152 11.6419 13.7157 12.5867 12.82V14C12.5867 14.1768 12.6569 14.3464 12.7819 14.4714C12.907 14.5964 13.0765 14.6667 13.2533 14.6667C13.4302 14.6667 13.5997 14.5964 13.7247 14.4714C13.8498 14.3464 13.92 14.1768 13.92 14V11C13.9184 10.8278 13.8501 10.6628 13.7296 10.5398C13.609 10.4168 13.4455 10.3452 13.2733 10.34ZM8.00001 1.33334C6.29093 1.33821 4.649 1.99928 3.41334 3.18V2C3.41334 1.82319 3.34311 1.65362 3.21808 1.5286C3.09306 1.40357 2.92349 1.33334 2.74668 1.33334C2.56987 1.33334 2.4003 1.40357 2.27527 1.5286C2.15025 1.65362 2.08001 1.82319 2.08001 2V5C2.08001 5.17681 2.15025 5.34638 2.27527 5.47141C2.4003 5.59643 2.56987 5.66667 2.74668 5.66667H5.74668C5.92349 5.66667 6.09306 5.59643 6.21808 5.47141C6.34311 5.34638 6.41334 5.17681 6.41334 5C6.41334 4.82319 6.34311 4.65362 6.21808 4.5286C6.09306 4.40357 5.92349 4.33334 5.74668 4.33334H4.14668C4.88165 3.56525 5.8294 3.03434 6.86828 2.80874C7.90715 2.58315 8.98974 2.67317 9.97708 3.06724C10.9644 3.46132 11.8115 4.14148 12.4095 5.0204C13.0075 5.89933 13.3292 6.93693 13.3333 8C13.3333 8.17681 13.4036 8.34638 13.5286 8.47141C13.6536 8.59643 13.8232 8.66667 14 8.66667C14.1768 8.66667 14.3464 8.59643 14.4714 8.47141C14.5964 8.34638 14.6667 8.17681 14.6667 8C14.6667 7.12452 14.4942 6.25762 14.1592 5.44878C13.8242 4.63994 13.3331 3.90501 12.7141 3.28596C12.095 2.6669 11.3601 2.17584 10.5512 1.84081C9.7424 1.50577 8.87549 1.33334 8.00001 1.33334V1.33334Z" fill="white"/>
</svg>
